<svg width="32" height="32" viewBox="0 0 32 32" fill="none" xmlns="http://www.w3.org/2000/svg">
  <!-- Background -->
  <rect width="32" height="32" rx="6" fill="#0f172a"/>
  
  <!-- Gradient definitions -->
  <defs>
    <linearGradient id="gradientAccent" x1="0%" y1="0%" x2="100%" y2="100%">
      <stop offset="0%" style="stop-color:#06b6d4;stop-opacity:1" />
      <stop offset="100%" style="stop-color:#4f46e5;stop-opacity:1" />
    </linearGradient>
  </defs>
  
  <!-- Letter "S" representing SAJID -->
  <path d="M 8 9 Q 8 8 9 8 L 15 8 Q 16 8 16 9 L 16 11 Q 16 12 15 12 L 10 12 Q 9 12 9 13 L 9 15 Q 9 16 10 16 L 16 16 Q 17 16 17 17 L 17 23 Q 17 24 16 24 L 10 24 Q 9 24 9 23 L 9 21 Q 9 20 10 20 L 15 20 Q 16 20 16 19 L 16 17 Q 16 16 15 16 L 9 16 Q 8 16 8 15 Z" fill="url(#gradientAccent)"/>
  
  <!-- Decorative dots -->
  <circle cx="24" cy="10" r="1.5" fill="#06b6d4" opacity="0.8"/>
  <circle cx="26" cy="12" r="1" fill="#4f46e5" opacity="0.6"/>
  <circle cx="25" cy="22" r="1.2" fill="#06b6d4" opacity="0.7"/>
</svg>
